<svg width="24" height="24" viewBox="0 0 24 24" fill="none" xmlns="http://www.w3.org/2000/svg">
<path d="M8.5 4H5.5C4.67157 4 4 4.67157 4 5.5V9.5C4 10.3284 4.67157 11 5.5 11H8.5C9.32843 11 10 10.3284 10 9.5V5.5C10 4.67157 9.32843 4 8.5 4Z" stroke="#A09CAB" stroke-width="2" stroke-linejoin="round"/>
<path d="M18.5 4H15.5C14.6716 4 14 4.67157 14 5.5V6.5C14 7.32843 14.6716 8 15.5 8H18.5C19.3284 8 20 7.32843 20 6.5V5.5C20 4.67157 19.3284 4 18.5 4Z" stroke="#A09CAB" stroke-width="2" stroke-linejoin="round"/>
<path d="M18.5 12H15.5C14.6716 12 14 12.6716 14 13.5V18.5C14 19.3284 14.6716 20 15.5 20H18.5C19.3284 20 20 19.3284 20 18.5V13.5C20 12.6716 19.3284 12 18.5 12Z" stroke="#A09CAB" stroke-width="2" stroke-linejoin="round"/>
<path d="M8.5 15H5.5C4.67157 15 4 15.6716 4 16.5V18.5C4 19.3284 4.67157 20 5.5 20H8.5C9.32843 20 10 19.3284 10 18.5V16.5C10 15.6716 9.32843 15 8.5 15Z" stroke="#A09CAB" stroke-width="2" stroke-linejoin="round"/>
</svg>
