<svg width="25" height="22" viewBox="0 0 25 22" fill="none" xmlns="http://www.w3.org/2000/svg">
<path d="M22.6083 9.20475H21.7779V9.16671H12.5V12.8334H18.326C17.4761 14.9678 15.1922 16.5 12.5 16.5C9.08423 16.5 6.31478 14.0374 6.31478 11C6.31478 7.96267 9.08423 5.50004 12.5 5.50004C14.0767 5.50004 15.5112 6.02896 16.6034 6.89292L19.5193 4.30012C17.6781 2.77433 15.2154 1.83337 12.5 1.83337C6.80702 1.83337 2.19128 5.93775 2.19128 11C2.19128 16.0623 6.80702 20.1667 12.5 20.1667C18.193 20.1667 22.8088 16.0623 22.8088 11C22.8088 10.3854 22.7376 9.78546 22.6083 9.20475Z" fill="#FFC107"/>
<path d="M3.37988 6.73342L6.76682 8.94212C7.68327 6.92454 9.90274 5.50004 12.5 5.50004C14.0767 5.50004 15.5112 6.02896 16.6034 6.89292L19.5193 4.30012C17.6781 2.77433 15.2154 1.83337 12.5 1.83337C8.54044 1.83337 5.1066 3.82117 3.37988 6.73342Z" fill="#FF3D00"/>
<path d="M12.5 20.1666C15.1627 20.1666 17.5822 19.2605 19.4115 17.7869L16.2209 15.3862C15.1512 16.1096 13.844 16.5009 12.5 16.4999C9.81868 16.4999 7.542 14.9797 6.68431 12.858L3.32263 15.1612C5.02873 18.1298 8.4935 20.1666 12.5 20.1666Z" fill="#4CAF50"/>
<path d="M22.6082 9.20467H21.7779V9.16663H12.5V12.8333H18.326C17.9194 13.8491 17.1871 14.7368 16.2194 15.3867L16.2209 15.3858L19.4115 17.7865C19.1857 17.9689 22.8087 15.5833 22.8087 11C22.8087 10.3853 22.7376 9.78538 22.6082 9.20467Z" fill="#1976D2"/>
</svg>
