<svg width="24" height="24" viewBox="0 0 24 24" fill="none" xmlns="http://www.w3.org/2000/svg">
<mask id="path-1-inside-1_12_717" fill="white">
<path d="M12 3L12.6126 2.20958C12.252 1.93014 11.748 1.93014 11.3874 2.20958L12 3ZM14.5 19H13.5C13.5 19.5523 13.9477 20 14.5 20V19ZM9.49999 19V20C10.0523 20 10.5 19.5523 10.5 19H9.49999ZM4.99999 17V10.1804H2.99999V17H4.99999ZM5.38742 9.3899L12.6126 3.79041L11.3874 2.20958L4.16227 7.80907L5.38742 9.3899ZM11.3874 3.79041L18.6126 9.3899L19.8377 7.80907L12.6126 2.20958L11.3874 3.79041ZM19 10.1804V17H21V10.1804H19ZM18 18H14.5V20H18V18ZM19 17C19 17.4997 18.9979 17.7739 18.9723 17.9641C18.9506 18.1255 18.9297 18.0704 19 18L20.4142 19.4143C20.7774 19.051 20.903 18.6138 20.9545 18.2306C21.0021 17.8761 21 17.4432 21 17H19ZM18 20C18.4431 20 18.8761 20.0022 19.2305 19.9545C19.6137 19.903 20.051 19.7775 20.4142 19.4143L19 18C19.0703 17.9297 19.1254 17.9506 18.964 17.9723C18.7738 17.9979 18.4997 18 18 18V20ZM18.6126 9.3899C18.8162 9.54774 18.9185 9.62808 18.9871 9.69149C19.0415 9.74184 19.0217 9.7345 19 9.69015L20.7959 8.8099C20.5678 8.34458 20.1406 8.04379 19.8377 7.80907L18.6126 9.3899ZM21 10.1804C21 9.79714 21.0239 9.27522 20.7959 8.8099L19 9.69015C18.9783 9.64581 18.9846 9.62569 18.991 9.69958C18.9991 9.79262 19 9.92265 19 10.1804H21ZM4.99999 10.1804C4.99999 9.92266 5.00086 9.79262 5.00897 9.69958C5.01541 9.62569 5.02173 9.64581 4.99999 9.69016L3.20412 8.8099C2.97604 9.27522 2.99999 9.79714 2.99999 10.1804H4.99999ZM4.16227 7.80907C3.8594 8.0438 3.4322 8.34458 3.20412 8.8099L4.99999 9.69016C4.97826 9.7345 4.95848 9.74184 5.01294 9.69149C5.08151 9.62808 5.18376 9.54774 5.38742 9.3899L4.16227 7.80907ZM2.99999 17C2.99999 17.4432 2.99787 17.8761 3.04552 18.2306C3.09704 18.6138 3.22256 19.051 3.58578 19.4143L4.99999 18C5.07031 18.0704 5.04939 18.1255 5.02768 17.9641C5.00211 17.7739 4.99999 17.4997 4.99999 17H2.99999ZM5.99999 18C5.50032 18 5.22616 17.9979 5.03597 17.9723C4.87454 17.9506 4.92967 17.9297 4.99999 18L3.58578 19.4143C3.94899 19.7775 4.38627 19.903 4.76947 19.9545C5.12391 20.0022 5.55686 20 5.99999 20V18ZM12 12.5C12.3604 12.5 12.7508 12.5944 13.0249 12.8C13.2506 12.9693 13.5 13.2856 13.5 14.0001L15.5 14C15.4999 12.7145 14.9992 11.7808 14.225 11.2C13.4991 10.6557 12.6396 10.5 12 10.5V12.5ZM13.5 14.0001V19H15.5V14L13.5 14.0001ZM12 10.5C11.3604 10.5 10.5008 10.6557 9.77499 11.2C9.0007 11.7808 8.49999 12.7145 8.49999 14H10.5C10.5 13.2856 10.7493 12.9693 10.975 12.8C11.2492 12.5944 11.6396 12.5 12 12.5V10.5ZM8.49999 14V19H10.5V14H8.49999ZM9.49999 18H5.99999V20H9.49999V18Z"/>
</mask>
<path d="M12 3L12.6126 2.20958C12.252 1.93014 11.748 1.93014 11.3874 2.20958L12 3ZM14.5 19H13.5C13.5 19.5523 13.9477 20 14.5 20V19ZM9.49999 19V20C10.0523 20 10.5 19.5523 10.5 19H9.49999ZM4.99999 17V10.1804H2.99999V17H4.99999ZM5.38742 9.3899L12.6126 3.79041L11.3874 2.20958L4.16227 7.80907L5.38742 9.3899ZM11.3874 3.79041L18.6126 9.3899L19.8377 7.80907L12.6126 2.20958L11.3874 3.79041ZM19 10.1804V17H21V10.1804H19ZM18 18H14.5V20H18V18ZM19 17C19 17.4997 18.9979 17.7739 18.9723 17.9641C18.9506 18.1255 18.9297 18.0704 19 18L20.4142 19.4143C20.7774 19.051 20.903 18.6138 20.9545 18.2306C21.0021 17.8761 21 17.4432 21 17H19ZM18 20C18.4431 20 18.8761 20.0022 19.2305 19.9545C19.6137 19.903 20.051 19.7775 20.4142 19.4143L19 18C19.0703 17.9297 19.1254 17.9506 18.964 17.9723C18.7738 17.9979 18.4997 18 18 18V20ZM18.6126 9.3899C18.8162 9.54774 18.9185 9.62808 18.9871 9.69149C19.0415 9.74184 19.0217 9.7345 19 9.69015L20.7959 8.8099C20.5678 8.34458 20.1406 8.04379 19.8377 7.80907L18.6126 9.3899ZM21 10.1804C21 9.79714 21.0239 9.27522 20.7959 8.8099L19 9.69015C18.9783 9.64581 18.9846 9.62569 18.991 9.69958C18.9991 9.79262 19 9.92265 19 10.1804H21ZM4.99999 10.1804C4.99999 9.92266 5.00086 9.79262 5.00897 9.69958C5.01541 9.62569 5.02173 9.64581 4.99999 9.69016L3.20412 8.8099C2.97604 9.27522 2.99999 9.79714 2.99999 10.1804H4.99999ZM4.16227 7.80907C3.8594 8.0438 3.4322 8.34458 3.20412 8.8099L4.99999 9.69016C4.97826 9.7345 4.95848 9.74184 5.01294 9.69149C5.08151 9.62808 5.18376 9.54774 5.38742 9.3899L4.16227 7.80907ZM2.99999 17C2.99999 17.4432 2.99787 17.8761 3.04552 18.2306C3.09704 18.6138 3.22256 19.051 3.58578 19.4143L4.99999 18C5.07031 18.0704 5.04939 18.1255 5.02768 17.9641C5.00211 17.7739 4.99999 17.4997 4.99999 17H2.99999ZM5.99999 18C5.50032 18 5.22616 17.9979 5.03597 17.9723C4.87454 17.9506 4.92967 17.9297 4.99999 18L3.58578 19.4143C3.94899 19.7775 4.38627 19.903 4.76947 19.9545C5.12391 20.0022 5.55686 20 5.99999 20V18ZM12 12.5C12.3604 12.5 12.7508 12.5944 13.0249 12.8C13.2506 12.9693 13.5 13.2856 13.5 14.0001L15.5 14C15.4999 12.7145 14.9992 11.7808 14.225 11.2C13.4991 10.6557 12.6396 10.5 12 10.5V12.5ZM13.5 14.0001V19H15.5V14L13.5 14.0001ZM12 10.5C11.3604 10.5 10.5008 10.6557 9.77499 11.2C9.0007 11.7808 8.49999 12.7145 8.49999 14H10.5C10.5 13.2856 10.7493 12.9693 10.975 12.8C11.2492 12.5944 11.6396 12.5 12 12.5V10.5ZM8.49999 14V19H10.5V14H8.49999ZM9.49999 18H5.99999V20H9.49999V18Z" fill="#B3B3B3"/>
<path d="M18.6126 9.3899L18.2174 9.08364L19.0078 9.69618L18.6126 9.3899ZM19 9.69015L18.7799 9.24118L19.22 10.1391L19 9.69015ZM15.5 14L15.5 14.5L15.5 13.5V14ZM5.17006 8.2932L4.55748 7.50278L3.76706 8.11536L4.37964 8.90578L5.17006 8.2932ZM18.8299 8.29323L18.2174 9.08364L19.0078 9.69616L19.6203 8.90575L18.8299 8.29323ZM19.6778 8.80106L18.7799 9.24118L19.2201 10.1391L20.118 9.699L19.6778 8.80106ZM14.5 14.5H15.5V13.5H14.5V14.5ZM4.99999 9.68036H2.99999V10.6804H4.99999V9.68036ZM2.99999 17.5H4.99999V16.5H2.99999V17.5ZM3.76706 8.11536L4.99221 9.69619L5.78263 9.08361L4.55748 7.50278L3.76706 8.11536ZM19.0078 9.69618L20.2329 8.11535L19.4425 7.50279L18.2174 9.08362L19.0078 9.69618ZM19 17.5H21V16.5H19V17.5ZM21 9.68036H19V10.6804H21V9.68036ZM18.5 20V18H17.5V20H18.5ZM18.6464 18.3535L20.0606 19.7678L20.7678 19.0607L19.3536 17.6464L18.6464 18.3535ZM19.22 10.1391L21.0159 9.25887L20.5758 8.36093L18.7799 9.24118L19.22 10.1391ZM5.22005 9.24119L3.42418 8.36093L2.98405 9.25887L4.77992 10.1391L5.22005 9.24119ZM3.93934 19.7678L5.35355 18.3535L4.64642 17.6464L3.23221 19.0607L3.93934 19.7678ZM6.49999 20V18H5.49999V20H6.49999ZM13.5 14.5001L15.5 14.5L15.5 13.5L13.5 13.5001L13.5 14.5001ZM11.5 10.5V12.5H12.5V10.5H11.5ZM8.49999 14.5H10.5V13.5H8.49999V14.5ZM4.16227 7.80907L3.5497 7.01866L3.54969 7.01866L4.16227 7.80907ZM12 3L11.2096 3.61259L12 4.63242L12.7904 3.61259L12 3ZM12.6126 2.20958L13.2252 1.41917L13.2251 1.41914L12.6126 2.20958ZM11.3874 2.20958L10.7749 1.41914L10.7748 1.41917L11.3874 2.20958ZM18.6126 9.3899L19.2253 8.59958L19.2252 8.59948L18.6126 9.3899ZM14.5 19H15.5V18H14.5V19ZM19 9.69015L19.8982 9.25065L19.8982 9.25057L19 9.69015ZM15.5 14H16.5V13.9999L15.5 14ZM9.49999 19V18H8.49999V19H9.49999ZM5.38742 9.3899L4.77485 8.59948L4.77484 8.59949L5.38742 9.3899ZM12.6126 3.79041L13.2252 4.58083L14.0156 3.96824L13.403 3.17782L12.6126 3.79041ZM11.3874 3.79041L10.597 3.17782L9.98438 3.96824L10.7748 4.58083L11.3874 3.79041ZM19.8377 7.80907L19.2251 8.59948L19.2252 8.59952L19.8377 7.80907ZM14.5 18V17H13.5V18H14.5ZM18.9723 17.9641L17.9812 17.8307L17.9812 17.8308L18.9723 17.9641ZM19 18L18.2929 17.2929L18.2924 17.2934L19 18ZM20.4142 19.4143L21.1213 20.1214L21.1214 20.1213L20.4142 19.4143ZM20.9545 18.2306L21.9456 18.3638L21.9456 18.3636L20.9545 18.2306ZM19.2305 19.9545L19.0973 18.9634L19.0971 18.9634L19.2305 19.9545ZM18.964 17.9723L18.8307 16.9812L18.8306 16.9812L18.964 17.9723ZM18.9871 9.69149L19.6663 8.95759L19.6659 8.95715L18.9871 9.69149ZM20.7959 8.8099L21.6939 8.3699L21.6938 8.36974L20.7959 8.8099ZM18.991 9.69958L17.9947 9.78587L17.9948 9.78631L18.991 9.69958ZM5.00897 9.69958L6.00519 9.78642L6.00519 9.78641L5.00897 9.69958ZM4.99999 9.69016L4.10207 9.25001L4.10203 9.25009L4.99999 9.69016ZM5.01294 9.69149L5.6918 10.4258L5.69188 10.4257L5.01294 9.69149ZM3.04552 18.2306L2.05443 18.3638L2.05444 18.3638L3.04552 18.2306ZM3.58578 19.4143L2.87859 20.1213L2.87868 20.1214L3.58578 19.4143ZM4.99999 18L5.7075 17.2933L5.707 17.2928L4.99999 18ZM5.02768 17.9641L4.03659 18.0973L4.0366 18.0974L5.02768 17.9641ZM5.03597 17.9723L5.16937 16.9812L5.16919 16.9812L5.03597 17.9723ZM4.76947 19.9545L4.90285 18.9634L4.90267 18.9634L4.76947 19.9545ZM13.0249 12.8L13.6249 12L13.6249 12L13.0249 12.8ZM14.225 11.2L14.8251 10.4L14.8249 10.3999L14.225 11.2ZM15.5 19V20H16.5V19H15.5ZM9.77499 11.2L9.17502 10.3999L9.17493 10.4L9.77499 11.2ZM10.975 12.8L10.3751 11.9999L10.3749 12L10.975 12.8ZM8.49999 19H7.49999V20H8.49999V19ZM9.49999 18H10.5V17H9.49999V18ZM12.7904 3.61259L13.403 2.82217L11.8222 1.59699L11.2096 2.38741L12.7904 3.61259ZM13.2251 1.41914C12.504 0.860287 11.496 0.860287 10.7749 1.41914L11.9999 3.00002H12.0001L13.2251 1.41914ZM10.597 2.82217L11.2096 3.61259L12.7904 2.38741L12.1778 1.59699L10.597 2.82217ZM14.5 18H13.5V20H14.5V18ZM12.5 19C12.5 20.1045 13.3954 21 14.5 21V19H12.5ZM15.5 20V19H13.5V20H15.5ZM8.49999 19V20H10.5V19H8.49999ZM9.49999 21C10.6046 21 11.5 20.1045 11.5 19H9.49999V21ZM10.5 18H9.49999V20H10.5V18ZM5.99999 17V10.1804H3.99999V17H5.99999ZM1.99999 10.1804V17H3.99999V10.1804H1.99999ZM5.99999 10.1803L13.2252 4.58083L12 2.99999L4.77485 8.59948L5.99999 10.1803ZM13.403 3.17782L12.1778 1.59699L10.597 2.82217L11.8222 4.403L13.403 3.17782ZM10.7748 1.41917L3.5497 7.01866L4.77484 8.59948L12 2.99999L10.7748 1.41917ZM10.7748 4.58083L18 10.1803L19.2252 8.59948L12 2.99999L10.7748 4.58083ZM20.4503 7.01866L13.2252 1.41917L12 2.99999L19.2251 8.59948L20.4503 7.01866ZM11.8222 1.59699L10.597 3.17782L12.1778 4.403L13.403 2.82217L11.8222 1.59699ZM18 10.1804V17H20V10.1804H18ZM22 17V10.1804H20V17H22ZM18 17H14.5V19H18V17ZM13.5 18V20H15.5V18H13.5ZM14.5 21H18V19H14.5V21ZM18 17C18 17.5306 17.9957 17.7233 17.9812 17.8307L19.9634 18.0975C20.0001 17.8245 20 17.4688 20 17H18ZM17.9812 17.8308C17.9795 17.8432 17.9798 17.8368 17.9848 17.816C17.9873 17.8056 17.9912 17.7905 17.997 17.7714C17.9998 17.7623 18.0037 17.7501 18.0089 17.7356C18.0093 17.7343 18.0164 17.7138 18.0269 17.6883C18.0288 17.6837 18.0325 17.6749 18.0373 17.664C18.039 17.6601 18.0531 17.6279 18.0744 17.589C18.09 17.5615 18.148 17.474 18.1938 17.4165C18.4243 17.2194 19.4355 17.194 19.904 17.7644C19.9435 17.9422 19.9455 18.179 19.938 18.2334C19.9334 18.2587 19.9249 18.2986 19.9213 18.3133C19.915 18.3385 19.909 18.358 19.9072 18.3638C19.9045 18.3724 19.9022 18.3794 19.9008 18.3836C19.898 18.3921 19.8956 18.3989 19.8943 18.4027C19.8543 18.5157 19.7947 18.6194 19.7076 18.7066L18.2924 17.2934C18.135 17.451 18.0507 17.6174 18.009 17.7351C18.0076 17.739 18.0052 17.7459 18.0024 17.7544C18.001 17.7587 17.9987 17.7657 17.996 17.7744C17.9942 17.7802 17.9882 17.7996 17.9819 17.8249C17.9783 17.8395 17.9697 17.8794 17.9652 17.9047C17.9576 17.9592 17.9597 18.196 17.9991 18.3738C18.4676 18.9442 19.4788 18.9188 19.7093 18.7216C19.7552 18.6642 19.8132 18.5766 19.8288 18.5492C19.8501 18.5103 19.8642 18.478 19.8659 18.4742C19.8707 18.4632 19.8744 18.4544 19.8763 18.4497C19.8868 18.4242 19.8941 18.4032 19.8948 18.4013C19.9004 18.3854 19.9051 18.3709 19.9089 18.3584C19.9169 18.3325 19.924 18.3061 19.9304 18.2793C19.9431 18.2257 19.9542 18.1656 19.9634 18.0973L17.9812 17.8308ZM21.1214 20.1213C21.7016 19.5409 21.8793 18.8571 21.9456 18.3638L19.9634 18.0974C19.9267 18.3704 19.8531 18.5611 19.707 18.7072L21.1214 20.1213ZM21.9456 18.3636C22.0041 17.9276 22 17.4168 22 17H20C20 17.4695 20 17.8245 19.9634 18.0975L21.9456 18.3636ZM18 21C18.4164 21 18.9277 21.0042 19.3639 20.9455L19.0971 18.9634C18.8245 19.0001 18.4697 19 18 19V21ZM19.3637 20.9455C19.8568 20.8793 20.5408 20.7018 21.1213 20.1214L19.7071 18.7072C19.5611 18.8531 19.3706 18.9266 19.0973 18.9634L19.3637 20.9455ZM19.7071 18.7071C19.6195 18.7946 19.5159 18.854 19.4043 18.8937C19.4006 18.895 19.3941 18.8973 19.3859 18.9C19.3819 18.9014 19.3752 18.9036 19.3669 18.9062C19.3615 18.9079 19.3427 18.9137 19.3183 18.92C19.304 18.9236 19.2647 18.9322 19.2396 18.9369C19.1842 18.9449 18.9273 18.9415 18.7319 18.893C18.1562 18.36 18.2683 17.3526 18.4466 17.1689C18.4977 17.1308 18.5754 17.0819 18.6 17.0684C18.6354 17.0496 18.6645 17.037 18.6684 17.0353C18.6785 17.0309 18.6866 17.0276 18.691 17.0258C18.7151 17.0159 18.7344 17.0092 18.736 17.0086C18.7504 17.0036 18.7624 16.9997 18.7715 16.997C18.7905 16.9911 18.8056 16.9872 18.816 16.9847C18.8367 16.9798 18.8432 16.9795 18.8307 16.9812L19.0972 18.9633C19.1655 18.9542 19.2256 18.9431 19.2792 18.9304C19.306 18.924 19.3324 18.9169 19.3582 18.909C19.3707 18.9051 19.3851 18.9005 19.4007 18.895C19.403 18.8942 19.4227 18.8873 19.4469 18.8774C19.4514 18.8756 19.4595 18.8722 19.4696 18.8678C19.4735 18.8661 19.5026 18.8536 19.538 18.8347C19.5627 18.8212 19.6403 18.7723 19.6915 18.7342C19.8698 18.5506 19.9818 17.5432 19.4061 17.0101C19.2108 16.9617 18.9539 16.9582 18.8984 16.9662C18.8733 16.9709 18.834 16.9796 18.8197 16.9831C18.7953 16.9894 18.7765 16.9953 18.7711 16.997C18.7628 16.9996 18.7561 17.0018 18.752 17.0031C18.7438 17.0059 18.7372 17.0082 18.7335 17.0095C18.6171 17.051 18.4507 17.135 18.2929 17.2929L19.7071 18.7071ZM18.8306 16.9812C18.7232 16.9957 18.5306 17 18 17V19C18.4688 19 18.8244 19.0001 19.0974 18.9633L18.8306 16.9812ZM17.9999 10.1802C18.2187 10.3499 18.2793 10.399 18.3083 10.4258L19.6659 8.95715C19.5577 8.85715 19.4137 8.74561 19.2253 8.59958L17.9999 10.1802ZM18.3078 10.4254C18.3082 10.4257 18.3026 10.4206 18.2927 10.4102C18.2876 10.4049 18.2815 10.3984 18.2747 10.3907C18.2712 10.3868 18.2681 10.3832 18.2657 10.3804C18.258 10.3716 18.2692 10.3846 18.2762 10.3925C18.278 10.3944 18.2848 10.402 18.2937 10.4116C18.2989 10.417 18.3132 10.4317 18.3224 10.4408C18.3414 10.459 18.4246 10.5283 18.4923 10.5745C19.2514 10.6998 20.0203 9.7871 19.9318 9.31115C19.9046 9.25597 19.8621 9.18374 19.8498 9.16519C19.8337 9.14145 19.8197 9.12311 19.8192 9.12257C19.8128 9.11402 19.8074 9.10721 19.8073 9.10714C19.806 9.10543 19.8049 9.10409 19.8047 9.10388C19.8044 9.10342 19.8079 9.10787 19.8121 9.11321C19.816 9.11824 19.82 9.12357 19.8241 9.12918C19.8324 9.14033 19.8407 9.15216 19.849 9.16466C19.8653 9.18936 19.8822 9.21796 19.8982 9.25065L18.1017 10.1297C18.1286 10.1845 18.1562 10.2307 18.1806 10.2676C18.1929 10.2863 18.2047 10.3029 18.2154 10.3175C18.2208 10.3248 18.2259 10.3315 18.2306 10.3375C18.2355 10.3439 18.2396 10.349 18.2394 10.3488C18.2393 10.3486 18.2382 10.3473 18.2369 10.3456C18.2369 10.3456 18.2315 10.3388 18.225 10.3302C18.2246 10.3297 18.2106 10.3114 18.1945 10.2876C18.1822 10.2691 18.1397 10.1968 18.1124 10.1417C18.024 9.66571 18.7928 8.75305 19.552 8.87831C19.6196 8.92455 19.7028 8.99383 19.7219 9.01201C19.731 9.02111 19.7453 9.03577 19.7505 9.04124C19.7595 9.05078 19.7663 9.05841 19.768 9.06034C19.775 9.06812 19.7861 9.08099 19.7782 9.07193C19.7754 9.06867 19.7716 9.06427 19.7669 9.05903C19.7578 9.04888 19.7481 9.03833 19.7376 9.02734C19.7167 9.00555 19.6932 8.98241 19.6663 8.95759L18.3078 10.4254ZM21.6938 8.36974C21.3416 7.65129 20.6892 7.20382 20.4502 7.01862L19.2252 8.59952C19.403 8.73731 19.5316 8.83111 19.6601 8.95181C19.7802 9.06465 19.8546 9.16158 19.898 9.25006L21.6938 8.36974ZM22 10.1804C22 9.87796 22.0459 9.08828 21.6939 8.3699L19.8979 9.24991C19.9413 9.33841 19.9723 9.45662 19.9879 9.62071C20.0047 9.79622 20 9.95541 20 10.1804H22ZM19.8982 9.25057C19.9141 9.2831 19.9262 9.31383 19.9356 9.34158C19.9404 9.35565 19.9446 9.36924 19.9482 9.38223C19.9522 9.39623 19.9554 9.40925 19.9545 9.40568C19.9542 9.40459 19.9534 9.40127 19.9523 9.39703C19.9521 9.39631 19.9482 9.38133 19.9427 9.36286C19.9424 9.36208 19.9309 9.32203 19.9115 9.27423C19.8953 9.23668 19.8199 9.10012 19.751 9.00773C19.2653 8.69054 18.2511 8.97113 18.0106 9.4251C17.9927 9.52639 17.9851 9.66717 17.9864 9.70532C17.9877 9.72495 17.9906 9.75635 17.9919 9.76813C17.9943 9.78898 17.997 9.80518 17.9977 9.80978C18.0011 9.83091 18.0063 9.85659 18.0034 9.84202C18.0031 9.8404 18.0024 9.83644 18.0015 9.83148C17.9997 9.82203 17.9984 9.81367 17.9973 9.80654C17.9953 9.79262 17.9947 9.78525 17.9947 9.78587L19.9873 9.61329C19.9841 9.57697 19.9803 9.5444 19.976 9.51486C19.9737 9.49992 19.9715 9.48614 19.9691 9.47339C19.9679 9.46678 19.967 9.4617 19.9665 9.45946C19.9636 9.44457 19.9688 9.47007 19.9722 9.49112C19.9729 9.49572 19.9755 9.51191 19.978 9.53276C19.9793 9.54453 19.9821 9.57593 19.9834 9.59556C19.9848 9.63371 19.9772 9.77449 19.9592 9.87578C19.7188 10.3297 18.7046 10.6103 18.2188 10.2931C18.15 10.2008 18.0745 10.0642 18.0584 10.0267C18.039 9.97885 18.0274 9.93881 18.0272 9.93803C18.0216 9.91958 18.0178 9.90462 18.0176 9.90392C18.0165 9.89971 18.0157 9.89643 18.0154 9.89538C18.0147 9.89248 18.0185 9.90801 18.0236 9.9261C18.0284 9.94318 18.0343 9.96244 18.0414 9.98347C18.0556 10.0252 18.075 10.075 18.1018 10.1297L19.8982 9.25057ZM17.9948 9.78631C17.9982 9.82566 18 9.90391 18 10.1804H20C20 9.94139 20 9.75958 19.9872 9.61285L17.9948 9.78631ZM5.99999 10.1804C5.99999 9.90368 6.00177 9.82565 6.00519 9.78642L4.01275 9.61274C3.99995 9.75959 3.99999 9.94164 3.99999 10.1804H5.99999ZM6.00519 9.78641C6.00524 9.78583 6.00461 9.79332 6.00252 9.80739C6.00146 9.81458 6.00006 9.82313 5.99827 9.8329C5.99733 9.83802 5.9965 9.84227 5.99598 9.8449C5.99344 9.85773 5.99769 9.83677 6.00041 9.82106C6.00103 9.81747 6.00326 9.80457 6.00557 9.78796C6.00683 9.77856 6.00976 9.75341 6.01126 9.73765C6.01348 9.70682 6.01326 9.59037 6.00447 9.50525C5.78642 9.01403 4.71086 8.69783 4.19873 9.07287C4.14635 9.15514 4.08912 9.2728 4.07703 9.3039C4.06261 9.34296 4.05363 9.37542 4.05351 9.37583C4.04931 9.39054 4.0463 9.40248 4.0462 9.40286C4.04538 9.40608 4.04475 9.4086 4.04458 9.40929C4.04356 9.4134 4.04524 9.4066 4.04667 9.40106C4.0482 9.39516 4.04989 9.38887 4.05176 9.38225C4.05548 9.36909 4.05969 9.35539 4.06448 9.34126C4.07394 9.31338 4.0861 9.28258 4.10207 9.25001L5.89791 10.1303C5.92475 10.0756 5.94427 10.0256 5.95846 9.9838C5.96561 9.9627 5.97153 9.94334 5.9764 9.92608C5.97885 9.91742 5.98098 9.90948 5.98283 9.90235C5.98458 9.8956 5.98645 9.88799 5.98551 9.89177C5.98535 9.89241 5.98473 9.89491 5.98392 9.8981C5.98383 9.89845 5.98082 9.91037 5.97662 9.92506C5.97651 9.92547 5.96753 9.95793 5.95311 9.99698C5.94102 10.0281 5.88379 10.1457 5.83141 10.228C5.31928 10.603 4.24372 10.2868 4.02567 9.79563C4.01688 9.71051 4.01666 9.59407 4.01888 9.56324C4.02039 9.54748 4.02331 9.52233 4.02457 9.51293C4.02688 9.49633 4.02911 9.48343 4.02973 9.47985C4.03244 9.46421 4.03664 9.44344 4.03404 9.45658C4.0334 9.45983 4.03235 9.4652 4.03111 9.47197C4.02871 9.48503 4.02638 9.499 4.02416 9.514C4.01975 9.5437 4.01592 9.57638 4.01275 9.61275L6.00519 9.78641ZM2.30618 8.36977C1.95402 9.08824 1.99999 9.87807 1.99999 10.1804H3.99999C3.99999 9.95534 3.99531 9.79621 4.01202 9.6207C4.02764 9.45664 4.05869 9.33849 4.10205 9.25003L2.30618 8.36977ZM3.54969 7.01866C3.31079 7.20381 2.65834 7.65131 2.30618 8.36977L4.10205 9.25003C4.14541 9.16157 4.21978 9.06465 4.33988 8.9518C4.46837 8.83109 4.597 8.73731 4.77485 8.59948L3.54969 7.01866ZM4.10203 9.25009C4.118 9.2175 4.1349 9.18901 4.15114 9.16446C4.15937 9.15202 4.16761 9.14032 4.17572 9.12933C4.18465 9.11724 4.19246 9.10739 4.19234 9.10754C4.19186 9.10815 4.19017 9.11029 4.18804 9.11304C4.18776 9.1134 4.17992 9.12344 4.17057 9.13622C4.17019 9.13673 4.14964 9.16435 4.12723 9.2006C4.10994 9.22966 4.05263 9.34693 4.02029 9.43813C4.02702 10.0362 4.89899 10.7233 5.44902 10.6084C5.528 10.5615 5.62763 10.4865 5.65224 10.4648C5.6645 10.4534 5.68368 10.4348 5.69073 10.4277C5.70309 10.4151 5.7124 10.405 5.71498 10.4022C5.72641 10.3897 5.74095 10.3728 5.73214 10.3829C5.73049 10.3848 5.72767 10.3881 5.72421 10.3919C5.71762 10.3993 5.71174 10.4056 5.70671 10.4108C5.69688 10.4211 5.69137 10.4262 5.6918 10.4258L4.33408 8.95722C4.30728 8.982 4.28381 9.00504 4.26305 9.02669C4.25257 9.03763 4.24297 9.048 4.23415 9.05786C4.22957 9.06297 4.226 9.06705 4.22394 9.06942C4.21492 9.07978 4.22933 9.06307 4.24072 9.05065C4.24328 9.04784 4.25259 9.0377 4.26495 9.02513C4.272 9.01804 4.29118 8.99943 4.30343 8.98805C4.32804 8.9663 4.42768 8.89135 4.50665 8.84437C5.05668 8.72952 5.92865 9.41665 5.93538 10.0147C5.90304 10.1059 5.84573 10.2232 5.82844 10.2522C5.80603 10.2885 5.78548 10.3161 5.78511 10.3166C5.77577 10.3294 5.76795 10.3394 5.76768 10.3397C5.76556 10.3424 5.7639 10.3446 5.76345 10.3451C5.76065 10.3487 5.76575 10.3422 5.76986 10.3369C5.77434 10.3311 5.7793 10.3246 5.78464 10.3174C5.79527 10.3029 5.80695 10.2864 5.81924 10.2678C5.84359 10.231 5.87111 10.185 5.89795 10.1302L4.10203 9.25009ZM5.69188 10.4257C5.72077 10.399 5.7813 10.3498 6 10.1803L4.77484 8.59949C4.58622 8.74567 4.44225 8.85719 4.334 8.9573L5.69188 10.4257ZM1.99999 17C1.99999 17.4168 1.99581 17.9276 2.05443 18.3638L4.03661 18.0973C3.99993 17.8245 3.99999 17.4696 3.99999 17H1.99999ZM2.05444 18.3638C2.12074 18.857 2.29825 19.5408 2.87859 20.1213L4.29296 18.7072C4.14687 18.5611 4.07333 18.3705 4.0366 18.0973L2.05444 18.3638ZM4.29248 18.7067C4.2056 18.6197 4.14559 18.5159 4.10525 18.4015C4.10387 18.3975 4.10138 18.3904 4.09843 18.3814C4.09698 18.377 4.09459 18.3697 4.0918 18.3605C4.08994 18.3544 4.08368 18.3338 4.07711 18.307C4.07344 18.2915 4.06472 18.2491 4.06017 18.2221C4.05293 18.1643 4.06026 17.9155 4.10748 17.7304C4.57488 17.1883 5.5635 17.212 5.79536 17.4042C5.84379 17.463 5.90509 17.5533 5.92164 17.5818C5.94434 17.6225 5.95921 17.6563 5.96103 17.6603C5.96617 17.6718 5.97003 17.681 5.97207 17.6859C5.98304 17.7124 5.99053 17.7339 5.99087 17.7348C5.99609 17.7496 6.00006 17.762 6.00286 17.7711C6.00874 17.7902 6.01268 17.8054 6.01516 17.8159C6.02011 17.8366 6.02042 17.8432 6.01875 17.8308L4.0366 18.0974C4.04579 18.1657 4.05686 18.2258 4.06964 18.2795C4.07604 18.3063 4.08316 18.3328 4.09114 18.3587C4.09499 18.3713 4.09973 18.3859 4.10543 18.402C4.106 18.4036 4.11363 18.4255 4.12468 18.4522C4.12672 18.4571 4.13059 18.4663 4.13574 18.4778C4.13756 18.4819 4.15244 18.5157 4.17513 18.5563C4.19169 18.5849 4.253 18.6752 4.30142 18.7339C4.53328 18.9262 5.5219 18.9499 5.9893 18.4077C6.03652 18.2227 6.04385 17.9739 6.03661 17.916C6.03206 17.8891 6.02335 17.8467 6.01967 17.8311C6.0131 17.8043 6.00683 17.7837 6.00497 17.7776C6.00218 17.7684 5.99978 17.7611 5.99832 17.7566C5.99536 17.7476 5.99285 17.7404 5.99144 17.7364C5.94941 17.6172 5.8647 17.4506 5.7075 17.2933L4.29248 18.7067ZM6.01876 17.8308C6.00431 17.7233 5.99999 17.5305 5.99999 17H3.99999C3.99999 17.4689 3.99991 17.8244 4.03659 18.0973L6.01876 17.8308ZM5.99999 17C5.46941 17 5.27676 16.9957 5.16937 16.9812L4.90257 18.9633C5.17556 19.0001 5.53122 19 5.99999 19V17ZM5.16919 16.9812C5.15677 16.9795 5.16324 16.9798 5.18395 16.9847C5.19435 16.9872 5.20949 16.9911 5.22851 16.997C5.2376 16.9998 5.24971 17.0036 5.26413 17.0087C5.26557 17.0092 5.28548 17.0162 5.31015 17.0263C5.31467 17.0281 5.3231 17.0316 5.33359 17.0362C5.33743 17.0379 5.36795 17.0511 5.40495 17.0711C5.43085 17.0855 5.51305 17.1385 5.56708 17.18C5.75494 17.385 5.82657 18.3963 5.25075 18.899C5.06438 18.9426 4.81789 18.9452 4.76302 18.9374C4.73787 18.9327 4.69835 18.9241 4.68391 18.9206C4.65915 18.9143 4.64009 18.9084 4.63447 18.9066C4.62602 18.904 4.61922 18.9017 4.6151 18.9004C4.60677 18.8976 4.60014 18.8953 4.59641 18.8939C4.48417 18.8541 4.38046 18.7946 4.29298 18.7072L5.707 17.2928C5.5492 17.135 5.38277 17.0508 5.26574 17.0093C5.26194 17.0079 5.25525 17.0056 5.24686 17.0028C5.24272 17.0014 5.2359 16.9992 5.22743 16.9965C5.2218 16.9948 5.20273 16.9889 5.17796 16.9826C5.16352 16.979 5.12399 16.9704 5.09884 16.9658C5.04396 16.958 4.79748 16.9605 4.61111 17.0041C4.03529 17.5068 4.10692 18.5181 4.29477 18.7231C4.34881 18.7647 4.43101 18.8176 4.45691 18.8321C4.49391 18.852 4.52444 18.8652 4.5283 18.8669C4.5388 18.8715 4.54725 18.875 4.55179 18.8769C4.57663 18.8871 4.59694 18.8942 4.59904 18.8949C4.61476 18.9004 4.62919 18.9051 4.6417 18.9089C4.66755 18.9169 4.69393 18.924 4.72076 18.9304C4.77434 18.9431 4.83446 18.9542 4.90274 18.9633L5.16919 16.9812ZM2.87868 20.1214C3.45914 20.7018 4.14317 20.8793 4.63627 20.9455L4.90267 18.9634C4.62937 18.9266 4.43883 18.8531 4.29288 18.7071L2.87868 20.1214ZM4.63609 20.9455C5.07234 21.0042 5.58349 21 5.99999 21V19C5.53023 19 5.17548 19.0001 4.90285 18.9634L4.63609 20.9455ZM12 13.5C12.2195 13.5 12.3758 13.5632 12.4248 13.5999L13.6249 12C13.1257 11.6256 12.5013 11.5 12 11.5V13.5ZM12.4248 13.5999C12.4312 13.6047 12.4349 13.6061 12.4448 13.6267C12.4582 13.6548 12.5 13.7591 12.5 14.0001H14.5C14.5 13.5265 14.4171 13.1154 14.2494 12.7645C14.0781 12.4059 13.8443 12.1645 13.6249 12L12.4248 13.5999ZM16.5 13.9999C16.4999 12.4296 15.874 11.1869 14.8251 10.4L13.6249 11.9999C14.1243 12.3746 14.4999 12.9993 14.5 14L16.5 13.9999ZM14.8249 10.3999C13.8729 9.68606 12.7787 9.49996 12 9.49996V11.5C12.5005 11.5 13.1253 11.6253 13.6251 12L14.8249 10.3999ZM12.5 14.0001V19H14.5V14.0001H12.5ZM13.5 20H15.5V18H13.5V20ZM16.5 19V14H14.5V19H16.5ZM12 9.49996C11.2214 9.49996 10.127 9.68604 9.17502 10.3999L10.375 12C10.8746 11.6253 11.4994 11.5 12 11.5V9.49996ZM9.17493 10.4C8.12586 11.1869 7.49999 12.4296 7.49999 14H9.49999C9.49999 12.9993 9.87554 12.3746 10.375 11.9999L9.17493 10.4ZM11.5 14C11.5 13.759 11.5418 13.6547 11.5552 13.6266C11.565 13.606 11.5687 13.6046 11.575 13.5999L10.3749 12C10.1555 12.1646 9.92176 12.406 9.75051 12.7645C9.58286 13.1155 9.49999 13.5265 9.49999 14H11.5ZM11.5749 13.6C11.6241 13.5631 11.7805 13.5 12 13.5V11.5C11.4987 11.5 10.8743 11.6256 10.3751 11.9999L11.5749 13.6ZM7.49999 14V19H9.49999V14H7.49999ZM8.49999 20H10.5V18H8.49999V20ZM11.5 19V14H9.49999V19H11.5ZM9.49999 17H5.99999V19H9.49999V17ZM5.99999 21H9.49999V19H5.99999V21ZM10.5 20V18H8.49999V20H10.5Z" fill="#B3B3B3" mask="url(#path-1-inside-1_12_717)"/>
</svg>
