<svg width="24" height="24" viewBox="0 0 24 24" fill="none" xmlns="http://www.w3.org/2000/svg">
<path d="M14 19L13.375 15.5C12.5666 14.6282 10.7012 14 8.50001 14C6.29879 14 4.43337 14.6282 3.625 15.5L3 19M17 15C19 15 19.9435 15.4718 20.5 16L21 19M8.5 11C7.11929 11 6 9.88071 6 8.5C6 7.11929 7.11929 6 8.5 6C9.88071 6 11 7.11929 11 8.5C11 9.88071 9.88071 11 8.5 11ZM17 12C15.8954 12 15 11.1046 15 10C15 8.89543 15.8954 8 17 8C18.1046 8 19 8.89543 19 10C19 11.1046 18.1046 12 17 12Z" stroke="#B3B3B3" stroke-width="2" stroke-linecap="round" stroke-linejoin="round"/>
</svg>
